Coordinates
version=1
nRows=14
nColumns=36
inDegrees=yes

Units are S.I. units (second, meters, Newtons, ...)
If the header above contains a line with 'inDegrees', this indicates whether rotational values are in degrees (yes) or radians (no).

endheader
time	pelvis_tilt	pelvis_list	pelvis_rotation	pelvis_tx	pelvis_ty	pelvis_tz	hip_flexion_r	hip_adduction_r	hip_rotation_r	knee_angle_r	knee_angle_r_beta	ankle_angle_r	subtalar_angle_r	mtp_angle_r	hip_flexion_l	hip_adduction_l	hip_rotation_l	knee_angle_l	knee_angle_l_beta	ankle_angle_l	subtalar_angle_l	mtp_angle_l	lumbar_extension	lumbar_bending	lumbar_rotation	arm_flex_r	arm_add_r	arm_rot_r	elbow_flex_r	pro_sup_r	arm_flex_l	arm_add_l	arm_rot_l	elbow_flex_l	pro_sup_l
      0.35000000	      1.11648636	     -3.51287340	     -5.01223342	      0.22344697	      0.96357023	     -0.16251885	     -2.41299721	      8.05896238	      1.80960688	      4.12317903	      0.07196305	      8.48146587	      0.20624578	     -6.77577494	     22.44515379	     -4.46720506	     -3.59103110	     43.06125227	      0.75156063	      1.88335431	    -16.12053998	     -6.77577494	     -7.50734299	      3.27027697	      4.95517537	      0.52615937	     -7.69059609	     -2.81929185	     37.64745535	    111.28408337	      1.21702644	     -3.04479407	     -8.74683680	     25.41365958	    106.14120361
      0.36000000	      1.09579831	     -3.44790374	     -5.36854344	      0.23386451	      0.96335907	     -0.16097178	     -3.33494412	      7.97363424	      1.76045542	      3.71566189	      0.06485053	      9.16469138	      1.19997209	     -6.82234926	     22.93377576	     -4.45006975	     -3.50327384	     39.83987741	      0.69533703	      0.95574891	    -16.36424653	     -6.82234926	     -7.63246751	      2.79362988	      4.90366935	      1.24323582	     -7.89163575	     -1.44462069	     37.79476061	    111.22481599	      1.24586771	     -3.04086679	     -9.75795099	     25.68639543	    106.06722093
      0.37000000	      0.99118583	     -3.37146723	     -5.78693341	      0.24426953	      0.96272665	     -0.15920293	     -4.16824875	      7.91797992	      2.16223182	      3.31861543	      0.05792077	      9.60955257	      1.34859331	     -6.83364184	     23.43257726	     -4.52178377	     -3.51214937	     36.58021283	      0.63844515	      0.53450277	    -15.58936673	     -6.83364184	     -7.66656354	      2.27166362	      5.14051663	      1.70233111	     -7.88338933	     -1.03050817	     38.20696712	    111.12596040	      1.44763544	     -3.11176055	     -9.99073688	     25.69839180	    105.96095069
      0.38000000	      0.91186863	     -3.41632137	     -6.21623184	      0.25472214	      0.96183835	     -0.15748359	     -5.00760926	      7.99269994	      2.56378729	      2.99436896	      0.05226160	     10.06469275	      1.43021321	     -6.84378900	     23.81561432	     -4.73340644	     -3.52214757	     33.27936086	      0.58083442	      0.12193082	    -14.85634093	     -6.84378900	     -7.74017592	      1.91204591	      5.36188315	      2.20337915	     -7.95328491	     -0.51920269	     38.57442097	    111.06655089	      1.62702927	     -3.23713511	    -10.23353638	     25.72251215	    105.85840821
      0.39000000	      0.91711618	     -3.45158011	     -6.68369184	      0.26519408	      0.96081597	     -0.15570779	     -5.93364020	      8.04391179	      3.06161840	      2.70220642	      0.04716240	     10.57924105	      1.41644086	     -6.85432793	     24.00332443	     -4.96808030	     -3.58798747	     29.93114587	      0.52239704	     -0.29418850	    -13.98855812	     -6.85432793	     -7.91056297	      1.49157091	      5.58100590	      2.75080124	     -8.02820967	      0.12712270	     38.88934603	    111.04167356	      1.82427741	     -3.36694302	    -10.50138555	     25.77537365	    105.76509842
      0.40000000	      1.00362619	     -3.49587615	     -7.18030075	      0.27572647	      0.95967779	     -0.15390823	     -6.95256498	      8.08293811	      3.64109141	      2.42382294	      0.04230369	     11.13506214	      1.29058808	     -6.86668630	     24.00266902	     -5.22499193	     -3.71461536	     26.53907200	      0.46319419	     -0.63485980	    -12.96418887	     -6.86668630	     -8.20294781	      1.05076950	      5.78664319	      3.33852646	     -8.10054487	      0.94049083	     39.12865208	    111.03981180	      2.00798119	     -3.50953979	    -10.81980959	     25.86190981	    105.67880352
      0.41000000	      0.89072062	     -3.63310327	     -7.67162393	      0.28616698	      0.95801523	     -0.15219850	     -7.66747711	      8.23874670	      4.23670293	      2.34041394	      0.04084793	     11.63586104	      1.19299846	     -6.87426168	     24.18655406	     -5.57955410	     -3.56525995	     23.25234922	      0.40583005	     -0.82667066	    -11.93229316	     -6.87426168	     -8.27966923	      0.73804402	      5.96186111	      3.88228498	     -8.12952040	      1.47473461	     39.39360839	    111.00223224	      2.16200231	     -3.65522755	    -11.02354213	     25.94413736	    105.59892660
      0.42000000	      1.13922716	     -3.70488095	     -8.18430753	      0.29682627	      0.95672358	     -0.15042373	     -8.88002554	      8.24663115	      4.86266050	      2.07954028	      0.03629482	     12.29460442	      0.90808039	     -6.88578168	     23.82158038	     -5.88473911	     -3.77992332	     19.86687963	      0.34674246	     -0.99971394	    -10.77054842	     -6.88578168	     -8.73969870	      0.26893068	      6.16105020	      4.51570162	     -8.20124654	      2.37781208	     39.55008129	    111.02093209	      2.38020316	     -3.83289521	    -11.34907013	     26.03674491	    105.52917132
      0.43000000	      1.27909780	     -3.84724339	     -8.66989271	      0.30742638	      0.95509127	     -0.14877583	     -9.91530225	      8.32491007	      5.49814280	      1.95552119	      0.03413028	     12.88266954	      0.65070413	     -6.89804852	     23.53281785	     -6.24653251	     -3.74970978	     16.60442320	      0.28980186	     -1.06745446	     -9.72726424	     -6.89804852	     -9.10165616	     -0.11120691	      6.28291489	      5.16454288	     -8.24920546	      3.26126788	     39.65750809	    111.01254796	      2.55997929	     -3.99079095	    -11.67951488	     26.14024334	    105.46010344
      0.44000000	      1.33279032	     -4.04376492	     -9.12934767	      0.31800818	      0.95320573	     -0.14723004	    -10.81837214	      8.45273563	      6.10782307	      1.91788661	      0.03347344	     13.45950779	      0.45544785	     -6.90829007	     23.29174802	     -6.66357107	     -3.54920020	     13.48317133	      0.23532573	     -1.08449194	     -8.89051478	     -6.90829007	     -9.37751491	     -0.41907513	      6.37859712	      5.77280579	     -8.27232422	      3.98884920	     39.75571056	    111.00475028	      2.73416144	     -4.16803972	    -11.96436429	     26.20198959	    105.40650201
      0.45000000	      1.42288913	     -4.23851243	     -9.56234549	      0.32865750	      0.95128119	     -0.14580384	    -11.73980313	      8.54655391	      6.69162635	      1.93765636	      0.03381848	     14.07140615	      0.28846210	     -6.91795225	     22.94130957	     -7.06465486	     -3.26773995	     10.47742719	      0.18286560	     -1.09677669	     -8.23376211	     -6.91795225	     -9.68747429	     -0.73386498	      6.45320302	      6.37410615	     -8.27499364	      4.70199172	     39.82446174	    110.98087631	      2.94330849	     -4.35714403	    -12.23472782	     26.22697133	    105.34123512
      0.46000000	      1.57508120	     -4.43764146	     -9.92686731	      0.33939871	      0.94939530	     -0.14452824	    -12.74126282	      8.61053834	      7.18977458	      1.92602430	      0.03361547	     14.54493224	      0.18521161	     -6.94941883	     22.49373127	     -7.42133715	     -2.86698228	      7.65270630	      0.13356492	     -1.45378390	     -8.42006146	     -6.94941883	    -10.06803699	     -1.06194245	      6.20278837	      7.26969312	     -8.34841581	      6.36900276	     39.47833977	    111.02028663	      2.99085548	     -4.55658277	    -12.95050938	     26.41274069	    105.34922278
      0.47000000	      1.62188587	     -4.64252118	    -10.25123875	      0.35019376	      0.94728978	     -0.14330059	    -13.56366269	      8.69480301	      7.58834956	      2.05286456	      0.03582925	     15.23540971	      0.09479824	     -6.96055174	     22.24035628	     -7.82514203	     -2.56656988	      5.28078090	      0.09216701	     -1.33370883	     -8.15228052	     -6.96055174	    -10.33782942	     -1.37109629	      6.23582022	      7.75091197	     -8.26603269	      6.79016619	     39.53966870	    110.94841763	      3.24771346	     -4.75563524	    -13.18577266	     26.36130648	    105.29573774
      0.48000000	      1.68918775	     -4.82388243	    -10.51958509	      0.36108845	      0.94522528	     -0.14219115	    -14.38059002	      8.73357641	      7.87814079	      2.21632757	      0.03868221	     15.79315191	      0.24191767	     -6.98202232	     22.02384591	     -8.16708998	     -2.29281612	      3.30386593	      0.05766334	     -1.44553238	     -8.52756112	     -6.98202232	    -10.62874345	     -1.72142909	      6.08957303	      8.32030314	     -8.18448219	      7.65949155	     39.43645028	    110.92479253	      3.44223236	     -4.98941053	    -13.51964166	     26.33160101	    105.27011645
